<svg xmlns="http://www.w3.org/2000/svg" xml:space="preserve" width="128" height="128" data-id="lg_5lp6tRM0y6pNfN23In" data-version="1" viewBox="0 0 128 128"><g data-padding="20"><path fill="#111" d="M64 23.299a40.701 40.701 0 1 0 0 81.402A40.701 40.701 0 1 0 64 23.3"/><path fill="#e40409" stroke="#fff" stroke-width="1.981" d="M101.54 63.923c-1.638 3.526-5.363 9.245-11.887 7.924a5.63 5.63 0 0 0-6.168 3.13 9.245 9.245 0 0 1-13.207 3.897 15.9 15.9 0 0 0 2.866-3.963.925.925 0 0 0-1.638-.845 14.5 14.5 0 0 1-3.289 4.253 14.5 14.5 0 0 1-4.464 2.641 14.396 14.396 0 0 1-16.733-4.9l.383-.356a15.9 15.9 0 0 0 2.668-3.777.925.925 0 0 0-.45-1.321.925.925 0 0 0-1.188.422 13.2 13.2 0 0 1-2.417 3.302 8 8 0 0 1-.885.78 10.434 10.434 0 0 1-13.854-.793 8.19 8.19 0 0 1 0-11.53 6.2 6.2 0 0 1 4.596-1.849 6.34 6.34 0 0 1 4.358 1.85 4.887 4.887 0 0 1 0 6.907 3.7 3.7 0 0 1-2.641 1.096 3.7 3.7 0 0 1-2.642-1.096.934.934 0 0 0-1.32 1.32 5.55 5.55 0 0 0 3.962 1.638 5.55 5.55 0 0 0 3.962-1.638 6.736 6.736 0 0 0 0-9.522 7.92 7.92 0 0 0-4.82-2.324v-.846a10.566 10.566 0 0 1 16.284-8.849 12.55 12.55 0 0 0-2.324 6.393.925.925 0 0 0 .924.99.925.925 0 0 0 .911-.871 10.7 10.7 0 0 1 6.234-8.902 10.6 10.6 0 0 1 4.49-.99 8.45 8.45 0 0 1 8.282 6.893 8 8 0 0 1 .132 1.533 6.604 6.604 0 0 1-6.604 6.603 5.07 5.07 0 0 1-5.045-5.045 3.83 3.83 0 0 1 3.883-3.962.964.964 0 0 0 .964-.82.925.925 0 0 0-.911-1.03 5.72 5.72 0 0 0-5.772 5.812 6.87 6.87 0 0 0 6.894 6.894 8.4 8.4 0 0 0 8.4-8.386v-.793a6.6 6.6 0 0 1 4.332 1.928 6.6 6.6 0 0 1 1.941 4.927v1.228l1.19-.277a9.51 9.51 0 0 1 8.056 1.835 11.49 11.49 0 0 0 12.546.49" paint-order="stroke"/><path fill="#ffdc00" stroke="#d6acae" stroke-width=".117" d="M46.6 64.77q-.243 0-.427-.125-.183-.125-.175-.375.015-.439.066-.97.05-.532.121-1.083t.144-1.06q.075-.508.138-.908-.14-.015-.274-.023t-.243-.008q-.328 0-.59.063t-.442.22q0-.494.082-.802.082-.31.305-.45.224-.14.653-.14.313 0 .7.05t.786.106.744.055q.28 0 .504-.055.223-.056.34-.197.172.056.266.24t.094.403q0 .195-.086.379t-.275.305q-.187.12-.507.12-.15 0-.364-.027t-.458-.058q-.086.47-.175 1.122-.09.653-.149 1.404t-.075 1.525q-.14.148-.331.218-.192.071-.373.071Zm3.66.001q-.336 0-.54-.227-.203-.227-.203-.618 0-.21.054-.55.055-.34.138-.752.081-.41.16-.836t.133-.825.055-.704q0-.383-.103-.556v-.046q.172-.196.376-.29t.399-.094q.297 0 .509.212.21.21.21.633 0 .227-.062.555t-.148.689q-.086.359-.173.672.149-.289.395-.575t.563-.473q.317-.188.661-.188.391 0 .528.243t.137.602q0 .328-.07.7t-.141.712-.07.567q0 .328.195.328.086 0 .152-.05.067-.052.099-.114l.053.039q0 .305-.148.516-.148.21-.38.321-.23.11-.472.11-.32 0-.58-.216-.257-.215-.257-.7 0-.273.074-.594l.145-.621q.07-.302.07-.505 0-.266-.188-.266-.171 0-.375.171-.203.173-.356.431t-.2.508q-.015.063-.015.149 0 .196.059.375.06.18.06.422 0 .36-.19.603-.186.242-.554.242Zm5.404.023q-.57 0-.947-.231-.375-.23-.562-.61t-.188-.818q0-.414.16-.832.16-.419.47-.763.309-.343.75-.555t.997-.211q.689 0 1.005.31.317.308.317.746 0 .375-.2.692t-.527.509q-.33.19-.72.19-.203 0-.414-.061-.212-.063-.415-.197.04.485.281.704t.58.22q.234 0 .469-.09t.434-.235q.2-.145.308-.309l.056.039q0 .407-.169.693-.167.285-.442.464-.273.18-.598.263t-.645.082Zm.18-2.111q.25 0 .407-.146.156-.144.234-.34.079-.195.079-.344 0-.18-.103-.3-.101-.122-.28-.122-.142 0-.31.102-.168.1-.301.348-.133.245-.172.684.25.118.446.118Zm-8.9 8.385q-.524 0-.903-.191-.38-.192-.626-.525-.247-.331-.368-.754-.121-.422-.121-.891 0-.595.184-1.189t.54-1.087.871-.794q.517-.3 1.18-.3.525 0 .904.19.38.192.626.524.247.333.368.755.12.423.12.892 0 .586-.183 1.184-.183.6-.54 1.092-.356.492-.871.794-.517.3-1.181.3Zm.289-.993q.274 0 .478-.187.202-.189.339-.497.138-.309.207-.684.07-.376.07-.76 0-.421-.089-.793-.09-.372-.282-.602-.191-.231-.496-.231-.266 0-.477.184t-.36.492q-.148.31-.223.681-.074.371-.074.747 0 .43.101.805t.306.61.5.235Zm3.988.971q-.25 0-.472-.113t-.36-.356-.137-.618q0-.204.038-.532.04-.328.106-.72.067-.39.138-.781-.157.008-.302.03-.144.024-.285.056l-.016-.055q.157-.188.329-.32t.36-.22q.101-.516.172-.896.07-.379.07-.449 0-.133.207-.22t.465-.085q.227 0 .426.086t.27.29q-.046.047-.132.348-.087.3-.18.731l.305.015q.157.007.32.024.015.047.024.102.008.054.008.117 0 .118-.035.254t-.083.246q-.187-.016-.351-.035t-.32-.027q-.064.336-.114.672-.05.337-.078.61-.028.275-.028.431 0 .328.121.437.121.11.293.11.157 0 .282-.062.125-.063.18-.15l.078.024q-.047.32-.25.56-.204.238-.485.366-.282.13-.564.13Zm4.498.008q-.275 0-.477-.18-.204-.18-.204-.587v-.078q0-.04.008-.078-.235.47-.528.692-.293.223-.59.223-.275 0-.517-.191t-.391-.568-.149-.907q0-.548.153-.977.152-.43.404-.727.25-.298.547-.45.296-.153.578-.153.313 0 .563.192t.345.606q.023-.134.035-.243.011-.109.011-.148.008-.212.215-.313.208-.101.458-.101.22 0 .414.085.197.086.267.29l.015.046q-.094.212-.188.51-.094.296-.172.62t-.125.634-.047.544q0 .258.055.356.054.097.133.097.133 0 .242-.187l.063.03q0 .267-.172.486t-.43.348-.516.13Zm-1.275-.993q.203 0 .45-.364t.426-1.044l.03-.137q.016-.067.024-.129-.124-.29-.261-.41-.138-.122-.27-.122-.196 0-.363.207-.169.208-.275.52t-.105.626q0 .43.098.641t.246.212Zm5.733.992q-.258 0-.485-.121t-.368-.356-.141-.564q0-.336.164-.758.126-.063.298-.196.171-.132.305-.3t.133-.333q0-.149-.113-.235t-.278-.086q-.204 0-.383.126-.181.124-.318.324t-.21.43-.075.442q0 .204.05.379t.051.403q0 .352-.187.595-.187.242-.555.242-.336 0-.54-.227t-.204-.618q0-.203.052-.54.05-.335.13-.743.077-.406.151-.84.075-.434.126-.837.05-.402.05-.723 0-.172-.02-.317t-.081-.23v-.048q.172-.195.375-.29.203-.093.398-.093.298 0 .51.211t.21.626q0 .22-.059.532t-.14.657q-.082.344-.168.657.172-.251.39-.516t.493-.45.618-.184q.399 0 .626.255.227.253.227.605t-.255.75q-.253.4-.848.674.101.227.282.406t.394.278q.215.098.404.098.093 0 .164-.031l.046.046q-.195.454-.535.676-.34.224-.684.224Zm2.495-.007q-.353 0-.59-.29-.24-.289-.24-.774 0-.265.063-.57t.125-.58q.054-.202.09-.379t.035-.285q0-.14-.058-.204t-.137-.062-.156.051-.126.152l-.063-.023q0-.32.157-.547t.398-.345.494-.117q.203 0 .39.082.188.082.31.254t.12.43q0 .157-.042.375-.043.22-.099.454-.053.243-.104.49-.052.246-.052.433 0 .172.055.282t.164.11q.204 0 .459-.376.253-.376.41-1.01.031-.124.054-.265t.023-.29q0-.116-.015-.237t-.047-.247v-.055q.125-.21.325-.32.199-.11.403-.11.273 0 .492.188.22.188.22.547 0 .211-.079.489t-.172.575q-.094.29-.173.57-.078.283-.078.502 0 .32.227.32.063 0 .153-.035t.168-.145l.055.016q0 .281-.152.496-.153.216-.388.333t-.485.117q-.32 0-.575-.234t-.254-.767v-.015q-.32.547-.664.782t-.641.234Zm5.466 0q-.242 0-.43-.117t-.188-.391q0-.43.184-.876t.453-.88.54-.848.454-.79.184-.696q0-.258-.126-.258-.086 0-.195.136-.11.137-.156.402l-.086-.015q0-.445.211-.754.21-.309.539-.465t.673-.157q.399 0 .747.227.348.226.481.72.054.194.082.437t.035.418l.008.177.027 1.071q.012.438.043.735.032.297.086.5.055.196.145.317.09.122.23.122.134 0 .232-.079.097-.078.129-.148l.054.04q0 .358-.14.625-.141.265-.368.406t-.477.141q-.242 0-.474-.145-.23-.144-.402-.45-.173-.305-.227-.79-.242-.015-.473-.027t-.419-.012q-.124 0-.238.005t-.223.012q-.07.242-.114.488-.043.246-.043.481 0 .18-.234.308-.235.13-.524.13Zm1.174-2.135q.195-.054.414-.074t.469-.02h.172q-.016-.578-.043-1.189t-.2-1.134q-.062.564-.312 1.182zm4.488 2.134q-.28 0-.5-.231-.219-.23-.219-.653 0-.203.047-.462.047-.257.11-.527t.108-.508q.048-.24.048-.396 0-.164-.059-.262-.06-.097-.153-.097-.148 0-.305.203l-.046-.03q-.008-.126.054-.298.063-.172.196-.333.133-.16.34-.27.207-.109.488-.109.416 0 .603.238.188.24.188.575 0 .055-.004.114-.004.058-.012.113.282-.508.59-.778.31-.27.575-.27.25 0 .368.195.117.196.117.47 0 .25-.097.509-.098.257-.29.426-.192.167-.465.16l-.032-.016q-.007-.204-.132-.32-.125-.118-.282-.118-.211 0-.395.211-.183.212-.183.61 0 .243.054.525.055.28.055.477 0 .234-.11.43t-.281.309-.376.113Zm4.279.025q-.517 0-.873-.235t-.535-.614q-.18-.38-.18-.817 0-.415.16-.83t.474-.762.762-.555 1.036-.207q.579 0 .86.23t.282.505q0 .29-.29.532-.289.242-.844.242.031-.118.05-.239t.02-.23q0-.164-.07-.278t-.251-.113q-.164 0-.347.149-.184.148-.313.437-.13.29-.13.712 0 .415.138.673.136.257.356.37t.461.114q.32 0 .617-.167.297-.169.43-.466l.079.032q0 .406-.184.692t-.473.469q-.29.184-.617.27t-.618.086Z"/><path fill="transparent" stroke="transparent" stroke-width=".113" d="M22.167 22.167h83.666v83.666H22.167z"/></g></svg>